<svg xmlns="http://www.w3.org/2000/svg" version="1.1" width="1000" height="217" viewBox="0 0 1000 217">
  <g transform="matrix(1,0,0,1,-0.6056348047761162,-0.5368087472510297)"><svg viewBox="0 0 396 86"
      data-background-color="#ffffff" preserveAspectRatio="xMidYMid meet" height="217" width="1000"
      xmlns="http://www.w3.org/2000/svg">
      <g id="tight-bounds" transform="matrix(1,0,0,1,0.24008861730862918,0.21274448047736882)"><svg
          viewBox="0 0 395.52 85.57451103904528" height="85.57451103904528" width="395.52">
          <g><svg viewBox="0 0 395.52 85.57451103904528" height="85.57451103904528" width="395.52">
              <g><svg viewBox="0 0 395.52 85.57451103904528" height="85.57451103904528" width="395.52">
                  <g><svg viewBox="0 0 395.52 85.57451103904528" height="85.57451103904528" width="395.52">
                      <g><svg viewBox="0 0 395.52 85.57451103904528" height="85.57451103904528" width="395.52">
                          <path
                            d="M394.594 18.354C392.735 9.471 387.435 7.002 387.435 7.002 371.165-2.147 350.86-0.175 332.619 1.14 300.414 1.193 268.339 3.147 236.208 4.195 168.767 4.355 100.749 1.726 33.643 8.21 27.339 10.2-6.54 8.601 1.121 19.491 3.129 24.021 10.456 29.049 10.232 33.206 11.236 33.934 12.631 32.264 13.226 33.312 15.309 36.137 18.711 34.805 21.501 36.475 17.614 40.934 20.403 44.647 23.062 48.537 18.377 49.55 12.371 49.07 9.675 52.428 9.396 54.862 7.89 54.4 6.235 54.293 5.026 54.222 2.59 54.489 2.999 55.252 4.394 57.864-1.594 59.374 2.162 61.932-0.422 64.704 3.948 67.102 3.353 70.104 3.278 70.708 3.687 71.223 4.338 71.365 7.22 72.129 3.018 73.622 3.464 75.238 33.029 86.288 65.104 78.649 95.394 83.73 103.259 80.177 97.346 84.991 100.489 84.245 102.943 83.375 104.728 86.981 107.499 84.938 107.927 84.352 107.276 82.966 108.8 83.233 109.6 83.375 110.307 83.339 110.418 82.522 110.586 81.296 109.117 82.06 108.726 81.421 112.947 78.187 111.906 85.88 115.866 85.56 115.68 84.618 114.528 83.268 116.889 83.446 119.232 82.096 119.306 80.976 121.389 84.014 121.463 84.672 121.835 85.134 122.43 85.453 128.938 82.149 135.409 86.626 142.233 85.134 146.417 83.499 150.433 86.022 154.672 85.4 156.16 84.903 157.666 84.014 159.098 85.507 176.632 85.826 195.319 84.494 211.943 85.56 256.364 83.57 303.835 86.377 350.674 83.748 361.719 82.735 373.192 81.296 383.958 80.141 383.958 80.141 392.679 76.979 392.679 62.767S394.538 50.331 394.817 39.015C395.096 27.699 396.398 27.237 394.538 18.354Z"
                            opacity="1" fill="#122c45" data-fill-palette-color="tertiary"></path>
                          <g transform="matrix(1,0,0,1,55.76832,26.230666666666668)"><svg width="283.98335999999995"
                              viewBox="4.050000190734863 -39.95000076293945 346.885009765625 40.45000076293945"
                              height="33.11317770571194" data-palette-color="#3a746d">
                              <path
                                d="M21.75-14.7L14.85-14.7Q14-14.7 13.53-15.38 13.05-16.05 13.05-17.2L13.05-17.2Q13.05-19.75 15.15-19.75L15.15-19.75 20.45-19.75Q22.3-19.75 23.08-20.8 23.85-21.85 23.85-23.1L23.85-23.1 23.85-31.3Q23.85-32.55 23.08-33.6 22.3-34.65 20.45-34.65L20.45-34.65 9.95-34.65 9.95-2Q9.95 0.4 6.95 0.4L6.95 0.4Q4.05 0.4 4.05-2L4.05-2 4.05-36.7Q4.05-38.5 4.95-39.1 5.85-39.7 7.15-39.7L7.15-39.7 21.75-39.7Q23-39.7 24.4-39.15 25.8-38.6 27.1-37.75L27.1-37.75 27.05-37.75Q28.35-36.8 29.05-35.27 29.75-33.75 29.75-31.75L29.75-31.75 29.75-22.7Q29.75-18.65 27.05-16.65L27.05-16.65Q25.75-15.7 24.4-15.2 23.05-14.7 21.75-14.7L21.75-14.7ZM58.85 0.05L40.55 0.05Q38.7 0.05 38.05-0.9 37.4-1.85 37.4-3L37.4-3 37.4-36.7Q37.4-37.85 38.05-38.78 38.7-39.7 40.55-39.7L40.55-39.7 57.95-39.7Q59.8-39.7 59.9-37.2L59.9-37.2Q60-34.65 57.95-34.65L57.95-34.65 43.3-34.65 43.3-5 58.85-5Q60.7-5 60.75-2.55L60.75-2.55Q60.85 0.05 58.85 0.05L58.85 0.05ZM56.1-20.65L56.1-20.65Q56.1-18.9 54.87-17.7 53.65-16.5 51.9-16.5L51.9-16.5Q50.2-16.5 49-17.7 47.8-18.9 47.8-20.65L47.8-20.65Q47.8-22.4 49-23.6 50.2-24.8 51.9-24.8L51.9-24.8Q53.65-24.8 54.87-23.6 56.1-22.4 56.1-20.65ZM89.75-0.6L80.3-16.45 76.45-16.45Q75.6-16.45 75.12-17.13 74.65-17.8 74.65-18.95L74.65-18.95Q74.65-21.5 76.75-21.5L76.75-21.5 82.6-21.5Q84.45-21.5 85.2-22.55 85.95-23.6 85.95-24.85L85.95-24.85 85.95-31.3Q85.95-32.55 85.2-33.6 84.45-34.65 82.6-34.65L82.6-34.65 72.05-34.65 72.05-2.05Q72.05 0.35 69.1 0.35L69.1 0.35Q66.15 0.35 66.15-2.05L66.15-2.05 66.15-36.7Q66.15-38.5 67.07-39.1 68-39.7 69.3-39.7L69.3-39.7 83.85-39.7Q85.15-39.7 86.55-39.15 87.95-38.6 89.25-37.75L89.25-37.75 89.2-37.75Q90.5-36.8 91.2-35.27 91.9-33.75 91.9-31.75L91.9-31.75 91.9-24.45Q91.9-20.4 89.2-18.4L89.2-18.4Q88.65-18 88.02-17.65 87.4-17.3 86.75-16.95L86.75-16.95 94.75-3.75Q94.9-3.5 95.05-3.1 95.2-2.7 95.2-2.45L95.2-2.45Q95.2-1.25 93.5-0.15L93.5-0.15 93.5-0.2Q92.35 0.5 91.55 0.5L91.55 0.5Q90.4 0.5 89.7-0.65L89.7-0.65 89.75-0.6ZM105.79-34.65L105.79-2.1Q105.79 0.3 102.84 0.3L102.84 0.3Q99.89 0.3 99.89-2.1L99.89-2.1 99.89-36.7Q99.89-37.85 100.54-38.78 101.19-39.7 103.04-39.7L103.04-39.7 120.04-39.7Q121.84-39.7 121.94-37.2L121.94-37.2Q122.04-34.65 120.04-34.65L120.04-34.65 105.79-34.65ZM118.59-20.65L118.59-20.65Q118.59-19.8 118.27-19.03 117.94-18.25 117.37-17.7 116.79-17.15 116.04-16.82 115.29-16.5 114.39-16.5L114.39-16.5Q112.69-16.5 111.49-17.7 110.29-18.9 110.29-20.65L110.29-20.65Q110.29-22.4 111.49-23.6 112.69-24.8 114.39-24.8L114.39-24.8Q115.29-24.8 116.04-24.48 116.79-24.15 117.37-23.58 117.94-23 118.27-22.25 118.59-21.5 118.59-20.65ZM135.39-39.7L146.29-39.7Q147.59-39.7 148.99-39.15 150.39-38.6 151.69-37.75L151.69-37.75 151.64-37.75Q152.94-36.8 153.64-35.27 154.34-33.75 154.34-31.75L154.34-31.75 154.34-8Q154.34-3.95 151.64-1.95L151.64-1.95Q150.34-1 148.97-0.48 147.59 0.05 146.29 0.05L146.29 0.05 135.39 0.05Q134.09 0.05 132.72-0.48 131.34-1 130.04-1.95L130.04-1.95Q128.74-2.95 128.04-4.42 127.34-5.9 127.34-8L127.34-8 127.34-31.75Q127.34-33.75 128.04-35.27 128.74-36.8 130.04-37.75L130.04-37.75 129.99-37.75Q131.29-38.6 132.69-39.15 134.09-39.7 135.39-39.7L135.39-39.7ZM136.64-5L145.04-5Q146.89-5 147.64-6.05 148.39-7.1 148.39-8.4L148.39-8.4 148.39-31.3Q148.39-32.55 147.64-33.6 146.89-34.65 145.04-34.65L145.04-34.65 136.64-34.65Q134.79-34.65 134.04-33.6 133.29-32.55 133.29-31.3L133.29-31.3 133.29-8.4Q133.29-7.1 134.04-6.05 134.79-5 136.64-5L136.64-5ZM185.49-0.6L176.04-16.45 172.19-16.45Q171.34-16.45 170.86-17.13 170.39-17.8 170.39-18.95L170.39-18.95Q170.39-21.5 172.49-21.5L172.49-21.5 178.34-21.5Q180.19-21.5 180.94-22.55 181.69-23.6 181.69-24.85L181.69-24.85 181.69-31.3Q181.69-32.55 180.94-33.6 180.19-34.65 178.34-34.65L178.34-34.65 167.79-34.65 167.79-2.05Q167.79 0.35 164.84 0.35L164.84 0.35Q161.89 0.35 161.89-2.05L161.89-2.05 161.89-36.7Q161.89-38.5 162.81-39.1 163.74-39.7 165.04-39.7L165.04-39.7 179.59-39.7Q180.89-39.7 182.29-39.15 183.69-38.6 184.99-37.75L184.99-37.75 184.94-37.75Q186.24-36.8 186.94-35.27 187.64-33.75 187.64-31.75L187.64-31.75 187.64-24.45Q187.64-20.4 184.94-18.4L184.94-18.4Q184.39-18 183.76-17.65 183.14-17.3 182.49-16.95L182.49-16.95 190.49-3.75Q190.64-3.5 190.79-3.1 190.94-2.7 190.94-2.45L190.94-2.45Q190.94-1.25 189.24-0.15L189.24-0.15 189.24-0.2Q188.09 0.5 187.29 0.5L187.29 0.5Q186.14 0.5 185.44-0.65L185.44-0.65 185.49-0.6ZM213.34-14.7L206.44-14.7Q205.59-14.7 205.11-15.38 204.64-16.05 204.64-17.2L204.64-17.2Q204.64-19.75 206.74-19.75L206.74-19.75 212.04-19.75Q213.89-19.75 214.66-20.8 215.44-21.85 215.44-23.1L215.44-23.1 215.44-31.3Q215.44-32.55 214.66-33.6 213.89-34.65 212.04-34.65L212.04-34.65 201.54-34.65 201.54-2Q201.54 0.4 198.54 0.4L198.54 0.4Q195.64 0.4 195.64-2L195.64-2 195.64-36.7Q195.64-38.5 196.54-39.1 197.44-39.7 198.74-39.7L198.74-39.7 213.34-39.7Q214.59-39.7 215.99-39.15 217.39-38.6 218.69-37.75L218.69-37.75 218.64-37.75Q219.94-36.8 220.64-35.27 221.34-33.75 221.34-31.75L221.34-31.75 221.34-22.7Q221.34-18.65 218.64-16.65L218.64-16.65Q217.34-15.7 215.99-15.2 214.64-14.7 213.34-14.7L213.34-14.7ZM253.08-1.2L242.08-34.8 231.13-1.2 231.13-1.25Q230.83-0.5 230.31-0.03 229.78 0.45 229.03 0.45L229.03 0.45Q228.63 0.45 228.26 0.38 227.88 0.3 227.48 0.2L227.48 0.2 227.53 0.2Q224.68-0.7 225.43-3L225.43-3 236.83-37.65Q237.08-38.45 237.71-39 238.33-39.55 239.18-39.65L239.18-39.65Q240.03-39.8 240.83-39.88 241.63-39.95 242.08-39.95L242.08-39.95Q242.53-39.95 243.33-39.88 244.13-39.8 244.98-39.7L244.98-39.7Q245.68-39.6 246.36-38.95 247.03-38.3 247.38-37.65L247.38-37.65Q250.18-29.05 253.06-20.33 255.93-11.6 258.73-3L258.73-3Q259.43-0.7 256.63 0.2L256.63 0.2Q256.23 0.3 255.91 0.38 255.58 0.45 255.18 0.45L255.18 0.45Q254.48 0.45 253.91-0.03 253.33-0.5 253.08-1.25L253.08-1.25 253.08-1.2ZM245.83-12L245.83-12Q245.83-10.4 244.71-9.28 243.58-8.15 241.98-8.15L241.98-8.15Q240.38-8.15 239.28-9.28 238.18-10.4 238.18-12L238.18-12Q238.18-13.6 239.28-14.73 240.38-15.85 241.98-15.85L241.98-15.85Q243.58-15.85 244.71-14.73 245.83-13.6 245.83-12ZM274.08-5L280.88-5Q282.73-5 283.48-6.05 284.23-7.1 284.23-8.4L284.23-8.4 284.23-31.3Q284.23-32.55 283.48-33.6 282.73-34.65 280.88-34.65L280.88-34.65 269.18-34.65 269.13-2.05Q269.13-0.95 268.28-0.3 267.43 0.35 266.18 0.35L266.18 0.35Q263.23 0.35 263.23-2.05L263.23-2.05 263.23-36.7Q263.23-38.5 264.16-39.1 265.08-39.7 266.38-39.7L266.38-39.7 282.13-39.7Q283.43-39.7 284.83-39.15 286.23-38.6 287.53-37.75L287.53-37.75 287.48-37.75Q288.78-36.8 289.48-35.27 290.18-33.75 290.18-31.75L290.18-31.75 290.18-8Q290.18-3.95 287.48-1.95L287.48-1.95Q286.18-1 284.81-0.48 283.43 0.05 282.13 0.05L282.13 0.05 273.73 0.05Q272.88 0.05 272.41-0.65 271.93-1.35 271.93-2.5L271.93-2.5Q271.93-5 274.08-5L274.08-5ZM319.23 0.05L300.93 0.05Q299.08 0.05 298.43-0.9 297.78-1.85 297.78-3L297.78-3 297.78-36.7Q297.78-37.85 298.43-38.78 299.08-39.7 300.93-39.7L300.93-39.7 318.33-39.7Q320.18-39.7 320.28-37.2L320.28-37.2Q320.38-34.65 318.33-34.65L318.33-34.65 303.68-34.65 303.68-5 319.23-5Q321.08-5 321.13-2.55L321.13-2.55Q321.23 0.05 319.23 0.05L319.23 0.05ZM316.48-20.65L316.48-20.65Q316.48-18.9 315.25-17.7 314.03-16.5 312.28-16.5L312.28-16.5Q310.58-16.5 309.38-17.7 308.18-18.9 308.18-20.65L308.18-20.65Q308.18-22.4 309.38-23.6 310.58-24.8 312.28-24.8L312.28-24.8Q314.03-24.8 315.25-23.6 316.48-22.4 316.48-20.65ZM349.13 0.05L329.68 0.05Q327.83 0.05 327.18-0.9 326.53-1.85 326.53-3L326.53-3 326.53-37.55Q326.53-39.95 329.43-39.95L329.43-39.95Q332.43-39.95 332.43-37.55L332.43-37.55 332.43-5 349.13-5Q350.93-5 350.93-2.55L350.93-2.55Q351.03 0.05 349.13 0.05L349.13 0.05Z"
                                opacity="1" transform="matrix(1,0,0,1,0,0)" fill="#3a746d" class="undefined-text-0"
                                data-fill-palette-color="quaternary" id="text-0"></path>
                            </svg></g>
                        </svg></g>
                    </svg></g>
                </svg></g>
              <g></g>
            </svg></g>
          <defs></defs>
        </svg>
        <rect width="395.52" height="85.57451103904528" fill="none" stroke="none" visibility="hidden"></rect>
      </g>
    </svg></g>
</svg>
